<?xml version="1.0" standalone="no"?>
<!DOCTYPE svg PUBLIC "-//W3C//DTD SVG 20010904//EN"
 "http://www.w3.org/TR/2001/REC-SVG-20010904/DTD/svg10.dtd">
<svg version="1.0" xmlns="http://www.w3.org/2000/svg"
 width="1890.000000pt" height="1890.000000pt" viewBox="0 0 1890.000000 1890.000000"
 preserveAspectRatio="xMidYMid meet">
<metadata>
Created by potrace 1.11, written by Peter Selinger 2001-2013
</metadata>
<g transform="translate(0.000000,1890.000000) scale(0.100000,-0.100000)"
fill="#000000" stroke="none">
<path d="M9040 18817 c-3 -2 -70 -7 -150 -11 -147 -7 -354 -24 -500 -41 -896
-106 -1725 -319 -2525 -650 -434 -179 -955 -445 -1305 -664 -36 -22 -90 -55
-120 -73 -30 -17 -57 -34 -60 -37 -3 -3 -52 -37 -110 -75 -114 -75 -401 -278
-491 -348 -31 -24 -85 -65 -120 -93 -57 -44 -286 -232 -299 -245 -3 -3 -23
-20 -45 -39 -162 -138 -316 -283 -548 -516 -98 -99 -183 -179 -189 -177 -5 1
-7 -2 -4 -6 3 -5 -25 -43 -62 -84 -84 -93 -136 -151 -189 -214 -23 -27 -51
-60 -63 -74 -12 -14 -29 -35 -37 -47 -8 -13 -19 -20 -24 -17 -5 3 -8 1 -7 -4
2 -5 -22 -40 -51 -78 -129 -163 -160 -202 -193 -246 -19 -26 -37 -45 -40 -43
-3 3 -5 -1 -5 -8 0 -7 -31 -55 -70 -107 -127 -171 -354 -520 -474 -728 -30
-52 -62 -108 -73 -125 -33 -56 -166 -306 -226 -426 -359 -716 -625 -1486 -796
-2306 -7 -35 -62 -338 -69 -380 -16 -108 -44 -307 -50 -360 -3 -33 -8 -73 -10
-90 -2 -16 -7 -55 -10 -85 -2 -30 -7 -82 -11 -115 -25 -255 -32 -484 -29 -925
2 -261 6 -495 9 -520 3 -25 10 -106 16 -180 12 -158 35 -361 56 -510 8 -58 17
-123 20 -145 12 -87 87 -486 115 -610 136 -602 321 -1162 571 -1735 52 -120
290 -605 331 -675 13 -22 37 -65 54 -95 108 -197 228 -393 379 -620 125 -189
288 -418 357 -502 23 -28 36 -52 31 -59 -4 -7 -3 -9 3 -6 5 3 41 -33 78 -81
38 -48 90 -112 116 -142 59 -70 249 -291 263 -306 6 -6 54 -58 107 -115 90
-97 377 -384 479 -479 59 -55 206 -186 316 -280 16 -14 88 -73 159 -131 110
-89 185 -147 385 -297 103 -77 468 -324 527 -357 10 -5 50 -30 88 -54 72 -46
335 -201 340 -201 2 0 32 -16 67 -36 114 -65 529 -270 703 -347 727 -321 1503
-550 2285 -676 217 -35 227 -37 345 -51 50 -5 108 -12 130 -15 97 -12 400 -36
534 -43 284 -14 1074 -6 1192 13 13 2 65 6 114 10 173 12 522 57 755 96 698
117 1399 319 2043 589 54 22 103 37 109 34 6 -4 8 -3 5 3 -3 5 49 33 116 63
174 75 514 245 726 362 228 126 793 487 922 589 20 16 39 26 43 24 3 -3 4 -2
2 1 -3 3 32 33 77 67 115 85 402 314 503 403 47 41 90 72 95 68 5 -3 8 -1 7 4
-3 11 29 43 181 182 119 109 453 447 543 548 236 268 254 290 379 447 61 77
115 141 120 143 5 2 9 8 9 13 0 5 35 55 78 112 42 56 115 158 162 226 47 68
93 132 102 142 10 11 16 19 13 19 -3 0 12 26 33 58 68 100 187 292 274 442
568 974 960 2073 1138 3185 12 72 23 141 25 155 13 82 39 307 55 475 6 61 12
130 15 154 20 202 28 967 12 1250 -64 1161 -357 2343 -840 3386 -108 232 -361
716 -437 835 -5 8 -24 40 -42 70 -17 30 -52 85 -76 123 -23 37 -40 72 -37 77
4 6 2 9 -3 8 -5 -2 -67 83 -137 187 -108 162 -390 548 -429 587 -6 7 -25 31
-41 53 -17 22 -79 99 -140 170 -138 163 -144 170 -180 210 -368 401 -659 682
-1022 982 -67 56 -120 104 -117 107 2 3 1 4 -2 2 -3 -3 -79 51 -167 118 -288
218 -528 382 -822 561 -71 44 -132 82 -135 85 -3 3 -25 16 -50 29 -25 13 -90
48 -145 79 -123 68 -489 254 -605 306 -47 21 -98 45 -115 53 -16 8 -61 27
-100 43 -38 15 -95 39 -125 53 -136 61 -490 190 -725 265 -666 212 -1353 350
-2020 406 -99 9 -205 18 -235 21 -70 7 -1003 18 -1010 12z m885 -471 c17 -2
80 -7 140 -10 61 -4 128 -9 150 -11 22 -2 69 -7 105 -10 368 -31 897 -124
1318 -230 247 -63 585 -164 590 -177 2 -4 7 -6 12 -3 18 11 577 -201 815 -310
225 -102 418 -195 433 -208 8 -6 19 -12 26 -13 19 -3 324 -173 506 -282 395
-237 1022 -684 1003 -715 -3 -6 -1 -7 5 -3 27 16 611 -502 595 -527 -3 -6 -1
-7 5 -3 17 10 319 -299 540 -554 17 -19 28 -38 26 -42 -3 -5 0 -7 7 -6 7 2 18
-7 24 -19 5 -13 13 -23 17 -23 3 0 60 -66 125 -147 147 -183 179 -226 175
-235 -1 -5 2 -8 7 -8 20 0 414 -565 439 -629 3 -8 13 -23 21 -33 17 -19 181
-297 181 -305 0 -3 9 -17 20 -32 38 -55 196 -362 325 -636 185 -391 383 -941
509 -1410 134 -497 235 -1078 271 -1560 3 -44 8 -98 10 -120 18 -174 25 -699
13 -985 -59 -1478 -482 -2907 -1236 -4175 -88 -148 -375 -588 -420 -645 -11
-14 -55 -72 -98 -130 -143 -194 -264 -341 -276 -334 -7 4 -8 3 -4 -5 7 -11
-73 -111 -243 -301 -90 -101 -528 -541 -622 -625 -30 -27 -73 -66 -95 -85
-144 -129 -245 -210 -256 -204 -6 4 -8 3 -5 -3 9 -14 -157 -147 -488 -388
-213 -155 -612 -405 -890 -557 -104 -56 -490 -250 -565 -282 -36 -16 -93 -41
-126 -57 -814 -370 -1936 -651 -2849 -715 -49 -3 -101 -8 -115 -10 -43 -7
-426 -18 -605 -18 -181 0 -541 11 -615 19 -25 3 -103 9 -175 15 -694 57 -1481
226 -2148 461 -387 137 -677 260 -1050 447 -215 107 -582 310 -627 345 -8 7
-31 21 -50 31 -152 83 -613 406 -849 595 -80 64 -158 127 -175 141 -293 233
-754 685 -1052 1030 -203 236 -387 474 -565 730 -369 531 -651 1040 -898 1625
-404 953 -641 1995 -689 3035 -13 285 -5 927 13 1065 2 17 6 66 10 110 62 841
300 1828 635 2630 124 296 301 673 323 687 7 4 9 8 5 8 -13 0 129 258 280 510
70 117 341 531 376 575 9 11 58 76 109 145 94 128 154 205 286 365 274 333
685 756 984 1012 56 48 107 92 113 98 16 15 218 178 344 278 86 69 214 156
221 151 5 -3 8 -1 7 4 -5 19 392 289 602 410 19 11 107 62 195 112 214 124
565 302 582 295 8 -2 12 -1 9 4 -5 8 142 78 339 161 55 23 114 48 130 55 17 7
102 40 190 73 733 276 1512 456 2270 526 94 9 190 18 215 21 25 3 124 8 220
11 96 4 177 8 179 11 6 4 694 -6 736 -11z"/>
<path d="M11009 13453 c-66 -19 -104 -59 -129 -133 -18 -54 -21 -83 -19 -194
2 -72 8 -187 15 -256 6 -69 11 -176 10 -239 l-1 -114 -44 -3 c-78 -4 -115 -15
-181 -51 -36 -19 -67 -38 -70 -42 -42 -54 -240 -139 -240 -103 0 5 -7 72 -15
149 -8 76 -17 163 -20 193 -25 245 -49 376 -90 494 -13 38 -21 74 -18 79 3 6
2 7 -4 4 -6 -4 -15 5 -22 20 -38 83 -136 156 -225 166 -21 3 -43 11 -48 19 -7
10 -10 10 -19 -4 -5 -10 -17 -18 -26 -18 -12 0 -14 -7 -10 -32 4 -18 11 -98
17 -178 6 -80 12 -166 14 -192 3 -32 1 -48 -7 -48 -8 0 -7 -4 2 -9 10 -7 12
-22 7 -60 -4 -28 -3 -59 2 -69 5 -9 12 -71 16 -137 14 -268 47 -671 67 -810
14 -102 38 -253 49 -305 19 -87 22 -105 26 -144 2 -22 8 -42 12 -45 4 -4 14
-26 21 -51 22 -76 80 -212 114 -268 l32 -53 45 6 c62 10 115 43 142 90 34 61
36 179 4 402 -14 100 -26 204 -26 231 0 69 27 105 175 231 64 53 231 171 244
171 7 0 24 14 38 30 13 17 29 30 33 30 14 0 47 -100 61 -185 13 -79 14 -138 9
-660 -2 -209 0 -260 14 -310 9 -33 18 -67 19 -75 1 -8 8 -21 14 -28 19 -20 92
16 156 77 30 28 57 48 62 43 5 -4 5 -2 1 5 -4 7 4 29 17 50 41 67 76 159 92
244 3 13 9 47 14 74 5 28 13 79 16 114 7 71 7 425 1 481 -3 19 -7 76 -11 125
-3 50 -13 142 -21 205 -31 237 -42 322 -58 430 -34 220 -75 520 -82 588 -5 56
-10 72 -23 73 -69 6 -115 4 -152 -8z"/>
<path d="M13295 13365 c-38 -7 -88 -17 -109 -23 -22 -6 -43 -9 -47 -7 -4 3 -9
2 -11 -3 -1 -4 -33 -20 -70 -36 -230 -96 -458 -330 -593 -606 -62 -128 -136
-355 -160 -495 -30 -178 -37 -417 -17 -555 21 -138 24 -153 53 -252 29 -97
111 -282 130 -294 6 -3 8 -12 5 -20 -3 -8 -2 -13 2 -12 4 1 37 -28 74 -64 239
-237 782 -275 1176 -81 40 20 94 52 120 72 57 43 140 130 148 154 3 9 8 15 12
13 4 -2 8 7 8 20 2 31 -32 55 -116 85 -57 19 -83 22 -205 20 -190 -2 -239 -5
-245 -13 -3 -4 -39 -8 -80 -10 -41 -2 -78 -7 -81 -12 -11 -15 -279 -13 -329 3
-84 25 -105 35 -143 70 -69 63 -115 191 -108 302 1 10 18 23 39 32 29 11 229
66 302 82 8 2 83 23 165 46 83 23 164 44 180 47 17 2 35 8 40 13 6 4 47 21 92
38 44 16 118 49 163 73 108 56 117 61 144 87 12 11 26 21 30 21 12 0 117 113
113 123 -7 21 -130 85 -191 101 -81 20 -224 21 -336 1 -88 -15 -283 -68 -335
-90 -26 -11 -58 -22 -90 -32 -5 -1 -69 -23 -140 -47 -139 -48 -175 -51 -175
-11 0 37 39 214 66 302 32 102 63 168 121 255 50 76 170 191 190 183 8 -2 12
-1 9 4 -3 5 18 21 47 36 135 70 260 88 426 61 237 -40 318 -24 399 79 36 46
30 97 -19 150 -29 31 -42 56 -46 83 -5 40 -6 40 -77 61 -182 54 -391 72 -531
46z"/>
<path d="M6303 13194 c-14 -52 -7 -519 11 -654 9 -69 19 -150 22 -180 3 -30 7
-62 9 -70 6 -20 61 -378 80 -521 9 -63 18 -125 20 -139 18 -123 28 -274 29
-426 l1 -181 102 -18 c105 -18 145 -16 215 12 30 12 37 20 33 34 -3 9 1 55 9
101 43 240 33 464 -39 881 -19 108 -35 218 -35 243 0 27 -6 52 -13 58 -8 6
-30 98 -51 211 -21 110 -42 220 -47 245 -18 90 -41 285 -37 321 2 21 0 35 -4
33 -5 -3 -8 1 -8 9 0 21 -127 59 -217 65 l-72 5 -8 -29z"/>
<path d="M5475 12624 c-152 -41 -372 -72 -625 -89 -47 -3 -105 -8 -130 -11
-25 -2 -65 -7 -90 -10 -291 -32 -448 -99 -605 -258 -72 -73 -98 -108 -132
-176 -102 -209 -141 -438 -130 -755 4 -93 8 -179 10 -190 3 -11 8 -51 12 -90
9 -91 49 -295 82 -415 15 -52 26 -103 25 -112 0 -10 3 -18 7 -18 4 0 8 -6 8
-12 1 -7 15 -51 32 -98 17 -47 31 -93 31 -102 0 -10 5 -18 10 -18 6 0 10 -6
10 -12 0 -13 139 -299 149 -308 3 -3 29 -38 56 -79 61 -91 171 -199 247 -245
124 -74 324 -66 566 23 219 80 442 222 591 375 24 25 49 42 55 39 6 -3 8 -3 4
2 -4 4 11 30 32 59 21 28 50 76 64 106 l25 54 -42 27 c-23 14 -51 43 -62 63
-15 28 -26 36 -48 36 -41 0 -172 -46 -245 -86 -34 -19 -69 -34 -77 -34 -8 0
-15 -4 -15 -9 0 -18 -243 -151 -275 -151 -9 0 -23 -7 -31 -15 -21 -21 -158
-62 -239 -71 -99 -11 -204 -7 -229 10 -54 36 -97 86 -158 186 -27 44 -78 205
-113 353 l-33 142 22 12 c86 50 320 127 661 218 324 86 481 139 615 204 143
71 266 180 310 276 22 49 46 152 38 161 -10 10 -213 5 -283 -6 -119 -20 -401
-106 -530 -161 -215 -92 -585 -203 -772 -232 -105 -16 -107 -15 -118 53 -16
91 4 376 32 450 3 8 7 38 9 65 10 108 14 116 89 167 39 26 111 67 160 92 98
48 284 116 319 116 12 0 26 4 32 9 26 24 462 94 789 127 91 9 140 23 126 37
-6 6 -11 37 -11 69 0 32 -7 75 -15 95 -8 19 -15 44 -15 54 0 10 -11 24 -24 31
-121 67 -117 66 -171 52z"/>
<path d="M8430 12624 c-8 -1 -55 -8 -105 -14 -49 -7 -134 -28 -187 -46 -53
-19 -104 -34 -113 -34 -8 0 -15 -4 -15 -10 0 -5 -19 -19 -42 -31 -211 -108
-357 -330 -423 -644 -30 -145 -35 -200 -35 -385 0 -252 44 -516 122 -729 23
-63 109 -242 136 -282 9 -14 29 -43 43 -65 52 -77 222 -227 264 -233 6 0 32
-8 58 -17 31 -10 81 -16 140 -15 227 1 478 118 668 311 121 122 194 235 240
368 20 59 18 72 -12 72 -10 0 -19 5 -19 11 0 6 -7 9 -15 5 -9 -3 -24 8 -41 29
-14 19 -31 32 -37 30 -7 -3 -25 -7 -41 -9 -48 -8 -173 -72 -236 -121 -32 -25
-61 -45 -64 -45 -3 0 -23 -17 -43 -37 -55 -53 -189 -137 -258 -162 -65 -23
-163 -39 -215 -35 -39 3 -65 31 -109 119 -29 55 -121 298 -121 317 0 4 62 8
138 8 l137 1 33 29 c17 16 32 33 32 38 0 13 148 106 225 141 39 18 102 46 140
61 39 15 105 44 149 64 43 20 87 36 97 36 11 0 19 4 19 10 0 5 17 21 38 34 20
13 55 41 77 62 22 21 44 37 48 36 5 -1 6 2 3 6 -3 5 6 22 21 38 21 23 28 42
31 89 6 82 5 135 -3 143 -4 4 -57 6 -118 6 -100 -1 -124 -5 -219 -37 -100 -34
-260 -108 -408 -191 -183 -102 -342 -168 -437 -181 l-51 -7 -8 58 c-10 80 1
257 21 329 23 85 73 182 107 206 15 11 28 26 28 34 0 33 160 138 281 185 52
20 211 63 274 75 69 13 291 48 308 48 15 1 17 14 17 119 0 112 -1 118 -21 118
-13 0 -18 4 -13 12 4 6 3 8 -4 4 -6 -3 -34 3 -63 15 -87 34 -208 58 -309 62
-52 2 -102 2 -110 1z"/>
<path d="M10530 12480 c0 -5 5 -10 10 -10 6 0 10 5 10 10 0 6 -4 10 -10 10 -5
0 -10 -4 -10 -10z"/>
<path d="M4330 11880 c0 -5 5 -10 10 -10 6 0 10 5 10 10 0 6 -4 10 -10 10 -5
0 -10 -4 -10 -10z"/>
<path d="M13463 10640 c-62 -57 -90 -164 -108 -405 -10 -126 -33 -258 -54
-308 -23 -54 -58 -76 -211 -136 -174 -67 -384 -141 -401 -141 -9 0 -22 -7 -29
-15 -6 -8 -41 -31 -77 -51 -125 -70 -216 -185 -244 -310 -11 -48 -10 -54 10
-79 11 -15 21 -37 21 -48 0 -19 4 -20 98 -14 119 8 281 50 407 107 11 4 67 30
125 55 58 26 159 75 225 108 199 99 380 168 458 174 45 4 67 10 67 19 0 7 12
15 28 18 79 16 172 27 226 26 87 -2 270 17 341 35 33 8 86 27 118 42 l57 27 0
105 c0 119 -11 148 -72 194 -74 55 -191 64 -378 28 -162 -31 -272 -43 -284
-30 -2 2 -6 81 -9 174 -4 136 -9 184 -26 237 -38 120 -113 188 -221 203 -37 5
-49 3 -67 -15z"/>
<path d="M6530 10614 c-151 -22 -270 -71 -347 -142 -13 -12 -29 -19 -35 -16
-6 4 -8 2 -5 -3 4 -6 -9 -34 -28 -63 -19 -28 -40 -70 -46 -93 -12 -42 -18
-171 -9 -180 3 -3 33 -11 68 -18 103 -21 186 0 407 101 31 15 71 24 105 24 30
1 61 5 68 10 9 5 30 -9 66 -46 54 -57 97 -132 117 -208 13 -46 16 -307 5 -365
-4 -16 -9 -114 -13 -217 -7 -212 -14 -197 79 -177 73 16 152 54 198 95 21 19
44 33 51 32 8 -2 15 8 17 21 2 13 15 40 28 60 28 43 68 157 78 222 41 274 -37
603 -188 792 -40 50 -117 100 -212 137 -111 43 -260 56 -404 34z"/>
<path d="M10800 10568 c-246 -18 -447 -127 -511 -275 -13 -30 -21 -72 -22
-112 l-2 -64 40 -14 c22 -8 76 -14 120 -15 71 0 98 6 235 52 128 43 171 52
250 57 l95 6 31 -32 c39 -40 69 -98 90 -176 13 -48 16 -102 15 -273 -3 -327
24 -473 99 -551 22 -22 47 -41 56 -41 9 0 42 27 74 61 127 130 210 388 210
644 -1 224 -67 433 -177 555 -116 129 -349 198 -603 178z"/>
<path d="M13608 8769 c-210 -27 -418 -96 -531 -176 -26 -18 -53 -31 -60 -27
-7 4 -9 4 -5 -1 4 -4 -8 -28 -28 -53 -43 -57 -58 -107 -50 -165 6 -37 13 -49
44 -69 107 -71 206 -72 422 -3 151 48 217 64 290 68 66 4 147 -10 186 -31 22
-12 59 -88 69 -140 17 -98 23 -172 24 -302 2 -188 9 -279 28 -362 18 -79 21
-80 125 -48 111 34 188 103 247 221 138 275 60 719 -165 943 -121 121 -217
157 -414 155 -63 -1 -145 -5 -182 -10z"/>
<path d="M5452 7173 c-53 -10 -61 -110 -19 -244 l27 -86 47 9 c27 5 67 6 89 3
39 -6 43 -4 62 27 11 18 31 60 43 93 12 33 28 69 36 81 12 19 10 23 -32 53
-79 57 -170 80 -253 64z"/>
<path d="M8331 7037 c-47 -15 -97 -65 -110 -112 -17 -63 -13 -160 15 -314 14
-79 23 -150 20 -157 -3 -8 -1 -14 4 -14 17 0 17 -236 1 -298 -16 -57 -85 -115
-215 -181 -115 -58 -196 -122 -216 -171 -7 -16 -16 -30 -20 -30 -11 0 -5 -39
8 -52 7 -7 12 -21 12 -33 0 -26 75 -65 125 -65 34 0 115 27 125 41 11 16 163
89 185 89 22 0 24 -5 31 -77 11 -106 11 -282 0 -438 -5 -71 -10 -147 -11 -167
-2 -21 -4 -41 -4 -45 -3 -12 1 -284 4 -313 1 -14 5 -32 8 -40 3 -8 10 -31 16
-50 17 -55 47 -97 92 -130 52 -38 63 -38 79 0 7 17 16 30 20 30 4 0 10 12 12
28 3 15 15 63 26 107 12 44 24 96 27 115 14 78 12 413 -5 625 -10 121 -17 295
-16 387 1 163 2 167 26 193 25 27 149 95 173 95 7 0 68 27 134 60 136 68 190
116 217 197 31 90 17 121 -64 147 -50 16 -65 17 -102 7 -24 -7 -54 -15 -68
-18 -13 -4 -31 -12 -38 -20 -27 -26 -103 -74 -164 -103 -128 -61 -135 -50
-139 201 -2 107 -7 217 -11 244 -19 112 -43 192 -70 233 -31 45 -45 49 -107
29z"/>
<path d="M14557 6585 c-32 -12 -73 -35 -92 -50 -19 -14 -40 -23 -47 -19 -6 4
-8 3 -5 -3 3 -5 -11 -27 -33 -48 -22 -21 -65 -77 -97 -124 -32 -47 -61 -87
-65 -89 -5 -2 -8 -11 -8 -21 0 -9 -4 -21 -9 -26 -19 -21 -91 -234 -107 -315
-31 -164 -17 -381 37 -557 57 -182 172 -368 288 -465 29 -25 40 -28 110 -28
150 0 271 49 374 151 98 98 139 198 131 321 -5 74 -8 78 -45 78 -52 0 -95 -26
-198 -122 -56 -52 -122 -105 -147 -117 l-45 -23 -34 26 c-61 47 -139 159 -148
213 -1 10 -5 23 -9 28 -17 28 -40 222 -27 231 4 2 6 41 4 87 -3 77 13 186 34
232 5 11 14 40 21 65 17 65 75 179 111 220 17 19 37 45 46 58 8 12 19 22 25
22 5 0 14 5 21 11 7 6 41 25 77 42 73 36 99 66 107 125 5 35 2 44 -22 66 -55
51 -165 65 -248 31z"/>
<path d="M5065 6288 c-69 -9 -127 -31 -279 -105 -60 -29 -115 -53 -122 -53 -8
0 -14 -5 -14 -11 0 -11 -200 -109 -223 -109 -7 0 -17 -4 -23 -9 -5 -5 -74 -32
-154 -60 -80 -29 -154 -56 -165 -61 -68 -31 -179 -70 -199 -70 -32 0 -39 -20
-41 -125 -1 -94 5 -115 35 -115 10 0 27 -12 38 -27 l20 -27 88 22 c58 14 141
48 241 97 83 41 179 82 213 92 71 19 79 14 80 -47 1 -41 25 -248 74 -630 42
-327 73 -620 82 -785 3 -66 8 -123 11 -127 2 -5 14 -8 26 -8 12 0 40 -12 62
-25 46 -29 55 -30 55 -11 0 24 29 46 60 46 28 0 28 1 37 78 21 198 4 406 -65
817 -25 146 -37 232 -57 415 -2 19 -4 85 -5 146 l0 111 -52 39 c-36 27 -54 48
-56 65 -3 23 5 29 77 62 44 21 89 37 101 37 11 0 20 4 20 8 0 5 30 19 68 31
150 51 258 129 298 216 13 27 24 55 24 62 0 17 -84 54 -142 62 -29 3 -80 3
-113 -1z"/>
<path d="M13440 6263 c-272 -45 -484 -324 -518 -684 -27 -279 44 -521 193
-657 67 -62 131 -92 220 -105 59 -9 79 -8 127 8 31 9 66 26 78 37 11 10 26 16
33 12 6 -4 9 -4 5 0 -3 4 9 28 28 53 69 90 113 199 146 364 20 99 23 143 23
339 0 229 -7 297 -47 455 -28 112 -55 172 -81 179 -24 6 -167 6 -207 -1z m34
-345 c8 -13 25 -61 37 -108 40 -154 14 -391 -59 -535 -13 -27 -28 -52 -32 -55
-4 -3 -12 -15 -19 -27 -26 -51 -107 4 -152 103 -44 97 -55 276 -24 399 17 64
54 145 67 145 4 0 8 7 8 15 0 8 5 15 11 15 7 0 21 11 33 24 45 51 105 62 130
24z"/>
<path d="M9657 6206 c-97 -36 -207 -139 -280 -262 -24 -40 -48 -70 -52 -66 -5
4 -5 2 -2 -5 4 -6 -7 -42 -24 -80 -53 -118 -113 -315 -124 -408 -2 -22 -7 -62
-11 -88 -10 -80 -12 -252 -2 -314 4 -32 10 -69 12 -83 2 -14 18 -63 36 -110
17 -47 32 -89 34 -95 4 -21 108 -166 157 -219 49 -53 174 -146 197 -146 6 0
12 -6 15 -12 5 -18 287 -20 302 -3 12 14 106 50 120 46 5 -1 7 1 3 5 -5 4 8
18 28 32 40 27 84 109 84 158 0 43 -19 94 -36 94 -8 0 -23 -9 -33 -19 -29 -29
-126 -53 -212 -53 -202 2 -370 133 -418 327 -17 65 -16 212 1 237 13 19 246
128 279 131 10 1 16 4 13 8 -2 4 19 21 48 38 83 47 165 132 198 204 56 125 86
318 68 436 -19 123 -65 191 -158 233 -58 27 -189 34 -243 14z m153 -293 c0
-14 6 -34 14 -42 34 -38 -89 -211 -201 -285 -21 -14 -50 -34 -64 -46 -23 -17
-28 -18 -38 -6 -16 19 9 118 52 206 48 98 158 199 220 200 12 0 17 -8 17 -27z"/>
<path d="M5870 6123 c-8 -2 -26 -20 -40 -40 -25 -36 -25 -38 -29 -312 -10
-694 -3 -989 28 -1171 19 -109 64 -239 87 -253 8 -4 14 -15 14 -22 0 -8 5 -15
11 -15 6 0 23 -8 37 -19 15 -10 45 -24 67 -31 22 -7 44 -18 48 -24 6 -8 10 -7
14 2 2 6 12 12 20 12 14 0 15 27 9 238 -11 394 -23 698 -31 837 -18 280 -22
329 -40 505 -8 74 -19 162 -25 196 l-11 60 -52 18 c-59 19 -86 24 -107 19z"/>
<path d="M12102 6074 c-18 -9 -39 -31 -46 -48 -38 -85 -41 -108 -40 -364 l0
-253 -60 -28 c-34 -16 -104 -43 -156 -60 -115 -39 -269 -112 -270 -127 0 -6
-7 -18 -17 -25 -18 -15 -63 -106 -63 -128 0 -8 17 -30 38 -50 21 -20 41 -44
44 -53 5 -13 17 -15 60 -12 72 6 103 17 204 74 73 41 179 79 190 67 14 -14 25
-187 28 -455 2 -134 7 -247 12 -252 5 -5 35 -17 67 -28 46 -15 68 -17 104 -11
55 11 56 12 79 98 16 57 18 114 18 426 1 253 4 366 13 380 7 13 42 30 100 48
231 74 344 166 377 310 6 25 3 29 -28 42 -71 30 -145 16 -300 -54 -37 -17 -86
-34 -107 -37 -36 -6 -39 -5 -40 17 0 13 0 112 0 219 0 107 -4 199 -8 205 -5 5
-11 22 -15 37 -4 18 -19 33 -49 47 -62 30 -97 34 -135 15z"/>
<path d="M10862 6032 c-92 -10 -227 -150 -313 -324 -144 -290 -210 -636 -165
-871 35 -181 155 -373 302 -483 22 -16 41 -31 44 -34 3 -3 37 -20 75 -37 140
-64 264 -61 354 8 13 10 28 16 34 12 5 -3 7 -2 4 4 -4 5 2 19 11 29 21 23 67
127 77 172 l7 32 -51 0 c-27 0 -80 -6 -118 -14 -154 -32 -199 -26 -259 32 -70
66 -150 182 -127 182 5 0 3 4 -3 8 -35 24 -66 174 -65 316 1 220 81 463 215
650 41 57 136 154 186 189 22 15 22 16 4 40 -24 32 -110 84 -149 89 -16 2 -45
2 -63 0z"/>
<path d="M7059 5923 c-66 -33 -181 -147 -227 -225 -117 -199 -185 -478 -181
-743 4 -293 101 -550 251 -668 183 -143 423 -138 579 14 28 27 55 49 60 49 5
0 9 5 9 12 0 6 13 39 30 74 16 35 33 81 36 103 4 23 9 39 13 37 4 -3 4 30 0
71 -4 42 -13 79 -20 84 -12 7 -42 5 -89 -8 -14 -3 -29 -5 -35 -4 -5 2 -7 0 -4
-3 3 -4 -15 -28 -40 -54 -25 -26 -63 -68 -83 -94 -21 -25 -58 -56 -83 -68 -44
-21 -48 -22 -89 -6 -23 9 -59 32 -80 50 -20 19 -41 36 -45 38 -16 6 -81 100
-102 146 -136 306 -46 600 323 1046 37 44 47 64 42 80 -8 27 -33 50 -59 54
-11 2 -24 8 -29 13 -6 5 -25 9 -42 9 -18 0 -36 5 -39 10 -10 16 -38 12 -96
-17z"/>
<path d="M10850 4680 c0 -5 5 -10 10 -10 6 0 10 5 10 10 0 6 -4 10 -10 10 -5
0 -10 -4 -10 -10z"/>
</g>
</svg>
