<?xml version="1.0" standalone="no"?>
<!DOCTYPE svg PUBLIC "-//W3C//DTD SVG 20010904//EN"
 "http://www.w3.org/TR/2001/REC-SVG-20010904/DTD/svg10.dtd">
<svg version="1.0" xmlns="http://www.w3.org/2000/svg"
 width="107.000000pt" height="107.000000pt" viewBox="0 0 107.000000 107.000000"
 preserveAspectRatio="xMidYMid meet">
<metadata>
Created by potrace 1.11, written by Peter Selinger 2001-2013
</metadata>
<g transform="translate(0.000000,107.000000) scale(0.100000,-0.100000)"
fill="#000000" stroke="none">
<path d="M831 1045 c-7 -16 -73 -192 -146 -390 -73 -198 -138 -372 -143 -386
l-10 -26 176 -47 c98 -25 182 -46 189 -46 19 0 28 119 27 350 0 233 -16 365
-58 501 l-23 74 -12 -30z m33 -567 c0 -135 -2 -249 -5 -252 -3 -3 -60 8 -126
25 l-121 32 13 36 c7 20 56 153 109 295 53 143 97 262 97 265 1 3 8 -30 17
-74 10 -56 15 -153 16 -327z"/>
<path d="M647 782 c-30 -38 -61 -75 -69 -83 -7 -8 -33 -39 -58 -69 -25 -30
-47 -57 -50 -60 -3 -3 -50 -58 -105 -123 l-99 -119 -55 7 c-30 4 -64 9 -74 11
-10 2 -47 6 -80 9 l-62 6 31 -28 c17 -15 79 -70 138 -122 89 -78 104 -96 91
-104 -15 -8 -117 -12 -145 -5 -12 3 -47 -48 -39 -57 11 -10 175 -8 274 5 173
21 349 16 515 -16 109 -20 117 -20 117 15 0 26 -4 29 -36 34 -20 2 -169 46
-331 97 -162 51 -315 98 -340 106 -51 16 -34 14 117 -12 56 -10 104 -16 106
-13 8 8 216 583 213 586 -2 2 -28 -27 -59 -65z m-149 -339 c-23 -60 -42 -110
-44 -112 -2 -2 -22 1 -44 8 -30 9 -38 16 -33 26 9 15 154 185 158 185 2 0 -15
-48 -37 -107z"/>
<path d="M960 220 c-25 -19 -30 -61 -10 -85 16 -20 64 -19 84 1 48 48 -19 125
-74 84z m64 -22 c27 -39 -25 -85 -59 -51 -17 17 -19 32 -5 53 7 12 10 8 10
-15 0 -24 5 -30 23 -31 17 -1 22 4 22 22 0 22 -7 28 -27 25 -5 0 -8 4 -8 9 0
18 29 10 44 -12z"/>
</g>
</svg>
